<?xml version="1.0" encoding="UTF-8"?>
<svg id="Layer_2" data-name="Layer 2" xmlns="http://www.w3.org/2000/svg" viewBox="0 0 693.88 509.14">
  <defs>
    <style>
      .cls-1 {
        fill-rule: evenodd;
        stroke-width: 0px;
      }
    </style>
  </defs>
  <g id="innerear_750_Image_copy_3" data-name="innerear_750 Image copy 3">
    <g>
      <path class="cls-1" d="m257.18,3.14c3.98,9.07,1.34,18.73,2,28,1.63,22.77,10.64,47.2,24,63,16.8,19.87,41.37,34.7,77,32,24.88-1.89,51.17-12.97,78-21,39.47-11.81,71.93-20.29,124-18,19.29.85,42.94,1.7,58,9,9.15,4.44,17.52,13.59,25,22,7.74,8.71,14.59,17.51,20,27,5.55,9.74,9.29,20.63,15,32,8.13,16.17,20.58,38.45,9,60-2.03,3.78-4.73,8.77-7,11-14.81,14.53-38.57,8.13-66,8-12.64-.06-25.99,1.48-37,4-10.68,2.45-21.86,6.48-27,14,5.8-.55,9.13-4.92,14-7,4.76-2.03,11.39-4.26,18-5,31.05-3.47,69.8,14.44,98,0-.64,6.02-10.05,6.3-15,7-38.96,5.53-87.51-18.76-113,8,1.52,6.86,5.7,15.1,3,23,10.94-3.94,22.43-12.21,38-14,29.51-3.39,64.64,8.58,93,2-1.78,2.82-5.75,3.62-8,4-24.57,4.17-55.52-6.09-81-4-17.8,1.46-31.09,7.2-43,18,10.73-5.37,22.54-14.58,41-16,19.96-1.54,40.22,1.55,59,3,5.74.44,11.52.46,17,1,4.71.47,10.96.3,14,4-1.03,4.17-5.77,1.26-8,1-19.7-2.34-44.5-5.5-65-6-26.14-.63-44.72,7.28-60,19-11.49,34.67-78.37,34.39-105,7-6.3-6.48-10.32-15.12-14-22-18.11,11.43,2.1,34.22,5,49-4.05-1.49-6.25-8.71-9-15-4.6-10.51-11.62-30.16,2-37-1.78-8.55-4.95-15.72-4-27-6.38-.62-7.88-6.12-14-7,.07,5.61,1.4,18.59,2,27-2.92-1.94-2.75-6.88-3-10-.25-3.13,1.2-6.62,0-10-2.79.9-3.61,12.37-13,10-.82-4.15,6.17-.5,7-3,5.06-5.26,1.67-11.7-3-15-7.22-.55-1.99,11.34-5,15-10.37-10.63-20.5-21.5-38-25-3.04,11.92,4.26,20.68,11,26-.81,11.48,3.11,18.23,3,29,23.93,4.4,38.65,18.01,40,45-5.17-3.11-2.95-9.8-5-15-4.68-11.9-16.86-25.33-33-27-8.16-.85-13.94-.31-21,0-25.23,1.11-45.12,3.86-65,13-23.98,11.02-44.42,19.21-80,17-23.37-1.45-54.69-17.38-73-4-9.16,6.69-12.01,22.67-9,36,1.27,5.64,5.35,10.76,6,16,1.56,12.5-11.55,33.25-8,50,2.2,10.36,11.58,14.61,24,10,8.61,31.84-7.57,64.26-35,64-16.34-.16-33.57-14.28-39-28-3.21-8.12-3.89-17.45-6-25-4.36-15.6-10.76-29.07-20-41-9.97-12.87-19.03-23.73-27-42C14.35,348.32,2.52,314.12.18,285.14c-.3-3.71-.17-12.17,0-16,1.83-41.6,9.56-80.01,24-117,6.59-16.87,12.38-34.6,18-52,5.59-17.27,9.21-38.21,18-52,10.42-16.34,36.57-30.9,57-18,5.06,3.19,11.53,10.61,18,17,12.22,12.07,17.3,24.57,22,44,6.17-27-12.1-49.77-2-72,4.51.52,4.89,7.28,6,12,4.15,17.67,8.89,40.87,5,64-3.01,17.91-18.57,12.6-23-3-1.44-5.06.78-11.07-2-16-8.22-14.56-29.98-1.44-32,8-2.92,13.7,13.3,36.02,19,48,2.67,5.61,2.91,10.7,5,17,3.28,9.89,9.44,19.91,13,31,4.57,14.24,7.67,28.97,7,45-.42,10.07-4.96,20.68-3,29,3.67,15.58,18.84,13.92,37,16,23.75,2.72,43.92,10.29,63,3,17.02-6.5,30.89-17.98,54-20,8.4-.73,25.71.82,34,0,4.67.33,4.33,5.67,9,6,6.88-5.95,1.9-14.98-4-19-8.69,1.76-.68,6.44-3,11-22.42-7.89-47.89,2.06-68-1-6.77-1.03-17.8-9.86-23-16-7.36-8.7-14.2-20.47-24-33-10.66-13.63-21.6-27.49-19-50,1.02-8.87,5.75-16.76,8-25,9.48-34.76-1.29-79.95,1-118,1.59-2.12,8.29-4.07,12-5,8.68-2.19,20.79-5.82,30,0Zm-41,6c-.25,41.08,10.17,83.71,0,120-2.37,8.45-7.19,15.09-8,23-3.02,29.48,15.82,42.64,29,60,8.14,10.73,13.07,22.58,21,29,16.44,13.3,37.02,3.15,61,5,6.78.52,12.37,2.69,19,3-2.38-9.11-17.2-14.76-16-27,.58-5.91,8.03-12.95,15-15,5.17-1.52,11.14.69,16-3,1.25,3.81,6.14,3.84,9,5,23.56,9.59,47.85,18.43,74,25,3.47-3.53,6.41-7.59,8-13-34.2.1-73.6.79-75-29-.34-7.2,2.53-14.88,7-20,11.25-12.9,35.34-19.52,60-19,2.15-25.65,17.66-50.27,43-53,24.19-2.6,42.36,13.19,43,35,.21,7.09-3.07,12.76-2,19,17.98-11.02,46.88-20.32,79-17,25.95,2.68,34.27,21.35,21,43-7.54,12.3-18.37,23.15-31,28-7.37,2.83-16.1,1.94-23,5-8.1,3.59-11.39,13.4-21,16-7.41,2-15.95,1.22-23-2-6.81,23.36-45.12,25.31-39,55,3.33-21.76,29.27-33.94,51-25,7.35,3.02,11.64,8.92,17,13,14.14-9.97,34.12-14.73,56-16,14.33-.83,29.29,2.54,44,2,24.47-.9,40.03-16.47,41-37,.89-18.71-8.47-29.72-15-43-5.43-11.04-9.79-22.06-15-31-10.89-18.71-24.93-38.25-44-47-17.16-7.87-46.41-8.44-70-9-52.56-1.26-94.31,12.81-134,25-26.77,8.22-54.2,19.57-82,13-41.95-9.91-71.94-49.25-75-96-.61-9.32,1.96-18.03-2-27-12.98-5.66-27.37,2.82-39,5Zm-71,54c-3.1-5.81-10.65-13.01-16-18-5.91-5.51-12.68-12.52-19-15-16.86-6.6-34.54,4.78-42,13-12.69,13.99-16.36,38.47-23,59-5,15.45-10.41,32.11-17,49-12.97,33.23-22.3,68.27-24,107-1.38,31.28,3.36,52.76,10,75,8.86,29.67,19,53.93,36,74,12.37,14.61,21.88,32.26,27,52,1.79,6.9,1.46,14.88,4,21,5.61,13.52,26.51,30.6,47,24,17.55-5.65,26.22-31.94,22-55-6.11,1.52-15.05,1.1-19-2-17.03-13.38,3.76-43.55,2-61-1.36-13.43-10.83-22.03-7-37-12.86-1.07-22.06-5.29-28-12-5.11-5.78-9.78-17.83-6-26,1.25,22.42,13.53,33.81,35,36,6.3-36.79,57.08-14.86,83-13,34.58,2.48,56.6-4.39,79-15,23.59-11.18,46.97-16.19,81-14-13-14.33-28.32-26.35-33-49-24.81-2.59-44.92.07-62,7-9.74,3.96-17.78,11.17-28,14-15.41,4.28-31.01.52-47-2-21.91-3.45-44.82-.3-52-17-3.82-8.89,1.44-21.82,2-31,1.55-25.31-6.36-43.77-14-63-6.45-16.22-10.69-33.39-20-47-20.17-1.83-21.15-22.85-37-29-17.12,17.34-19.16,44.62-26,71-6.45,24.89-19.82,48.68-24,73-5.2,30.27,2.43,57.1,11,82,8.34,24.24,17.37,47.97,28,69,4.64,2.98,13,2.22,17,7,2.51,3,5.48,13.5,2,16-1.81-4.86-2-11.33-5-15-4.4-2.82-12.1-2.8-16-6-5.89-4.83-10.67-21.68-14-30-13.2-32.99-28.16-67.38-28-107,.06-14.72,4.36-28.88,10-43,5.31-13.31,10.31-26.9,14-40,8.57-30.38,11.02-61.68,29-78-2.92-.94-10.97-.3-8-4,25.1-.43,24.02,25.32,44,30-1.74-10.56-9.83-16.27-7-30,3.02-14.63,28.12-23.86,37-10,6.53,10.2-.67,29.45,16,31,9.42-21.15,3.71-56.15-3-76-4.72,19.16,12.75,47.85,2,67-10.15-8.67-7.87-22.38-13-32Zm372,59c-9.58-22.72-44.64-25.29-63-8-10.54,9.93-11.37,23.74-15,39,3.8.2,7.12.89,10,2,.84-24.95,25.01-51.77,50-40,22.72,10.7,8.98,46.88-2,62,3.97,4.71,7.31,15.34,5,23-3.56-7.64-2.72-21.86-10-27-5.46-3.86-13.86-1.6-21-4-5.17-1.74-8.33-6.81-13-9-30.12-14.16-76.34,1.03-86,24-3.26,42.56,52.39,33.57,85,34-.35,3.32-5.76,1.57-9,2-4.7,9.63-11.67,17-14,29,10.52-4.85,10.47,21.1,3,23-4.82.82-1.96-6.04-6-6,1.43,4.69-.22,9.57,2,15,4.33-10.92,18.15-4.82,16,5-1,4.56-5.86,7.74-13,5,8.7,26.74,29.51,42.74,61,45,16.08,1.15,32.22-2.3,41-8,29.59-19.19,18.52-80.01-29-71-13.71,2.6-26.93,20.8-25,37,3.65,30.61,57.17,33.55,51-8-5.52-9.64-13.19-20.55-29-17-18.98,4.26-17.78,34.91,0,41,22.6,7.75,24.55-26.49,8-28-1.98-.18-9.8-.1-11,6-1.72,8.74,7.32,8.12,10,12-18.76,1.57-15.5-26.31,5-20,9.63,2.86,14.07,22.83,5,30-13.76,10.88-31.12-3.82-33-14-6.83-36.91,45.29-38.29,48-6,1.82,21.63-15.66,35.99-37,29-12.69-4.16-24.66-27.09-22-46,3.26-23.17,33.47-24.54,42-49,9.14,3.64,19.67,4.91,28,1,7.07-3.32,9.91-11.14,16-14,7.03-3.3,14.62-2.87,21-5,15.94-5.33,35.62-24.59,38-42,3.11-22.77-21.86-26.03-44-25-29.05,1.35-51.44,10.34-66,23,2.24-9.82,8.51-26.92,3-40Zm-7,8c-3.41-6.93-9.02-11.64-16-15-30.22-2.56-38.66,16.68-43,40,7.52,1.11,13.02,8.29,21,11,5.02,1.7,10.27.58,15,2,4,1.2,6.34,5.71,10,5,6.8-11.86,13.28-24.06,13-43Zm-181,103c4.08-2.71,10.18,1.12,15,1,1.09-6.91,4.9-11.1,11-13,0-5.34-2.42-8.24-3-13-16.69-4.9-35.69,12.61-23,25Zm27-22h2c1.55-2.46-3.4-2.94-3-1,.61.06,1.18.15,1,1Zm3,12c4.84,7.16,22.95,1.05,26,10-.75,3.92-3.9,5.43-5,9,9.44,4.22,10.79,16.54,27,14,2.21-.79-.19-6.19,4-5,2.93.07,2.19,3.81,6,3,3.64-2.69,6.23-6.44,14-5,1.46-4.21,3.39-7.94,4-13-25.12-7.54-50.47-14.86-73-25-1.92,3.08-2.66,7.34-3,12Zm-8,4c.29-2.04,2.71-1.96,3-4-4.21,1.46-7.11,4.23-7,10,1.86.96,3.34-3,4,0-4.74,4.8-17.04-.27-21,1,2.51,2.83,4.73,5.94,8,8,1.61-4.81,13.14-5.43,17-2-3.44.44-5.6-.4-8-1-.19,7.19,7.14,6.86,5,16-.62,2.71-4.18,2.49-4,6,4.47,3.88,11.24,10.75,18,9-4.73-4.27-6.71-11.29-6-21,7.22-3.76,8.25-24.06-1-23,1.94-.4,1.46,4.55-1,3-1.13-6.16,1.8-13.5,0-17-.41,1.71-1.29-.21-3,0,.82,4.74,3.39,15.63-4,15Zm12,21c16.87,3.13,27.47,12.53,36,24,3.18-4.72-2.94-12.79,3-15h-7c-6.29-4.37-10.96-10.38-16-16,.63-4.03,4.29-5.05,4-10-5.47-.87-10.22-2.45-16-3,.78,5.62,1.01,15.26-4,20Zm56,8c-5.61,1.61-5.51-2.49-9-3-1.29,1.79-2.26,9.66,1,10,.62-3.04,2.22-5.11,6-5,3.59,5.53,16.34,6.83,21,8-.62-5.38,1.62-13.62-2-16-5.23.91-15.27-.92-17,6Zm-46,45c-.96-8.7-1.85-17.48-3-26-13.21-1.79-20.67-9.33-29-16,5.49,19.18,17.02,32.31,32,42Z"/>
      <path class="cls-1" d="m578.18,147.14c11.78-1.42,37.19-.18,38,17,.59,12.45-16.09,23.11-25,29-18.68,12.35-39.27,17.41-60,5-6.67-3.99-12.24-8.46-13-15-2.93-25.11,38.32-33.39,60-36Zm-34,10c-9.63,3.28-26.99,11-24,27,1.53,8.2,21.94,19.03,30,20,18.19,2.19,29-5.77,42-15,8.99-6.38,22.68-14.08,22-25-.85-13.68-18.96-16.23-28-16-17.66.44-29.33,4.68-42,9Z"/>
      <path class="cls-1" d="m466.18,180.14c.04,13.63,10.27,17.07,13,28-5.66-2.87-5.84-8.99-11-13-2.89-2.24-7.28-2.26-10-5-3.81-3.83-5.41-9.9-7-16-4.28-2.72-10.08-3.91-15-6-2.35,11.93-1.78,28.93,7,33,1.89,1.77,6.6.73,10,1,.53,5.37,2.92,2.94,4,7-24.42-.16-74.24,8.18-78-15-.87-5.38,2.35-12.6,5-16,15.8-20.26,64.34-16.32,82,2Zm-84,15c4.08,17.72,47.38,11.8,69,12-1.03-3.39-4.99-2.21-7-3-12.19-4.79-13.1-20.67-11-37-23.49-3.77-55.97,6.39-51,28Zm84-3c-.36-9.64-5.41-14.59-13-17,2.21,7.79,5.13,14.87,13,17Z"/>
      <path class="cls-1" d="m435.18,253.14c-.84,5.06.06,5.92-1,10-5.54.54-8.66-1.34-12-3-2.97-9.21,7.76-9.26,13-7Zm-6,8c-.49-3.16,1.8-3.53,1-7h-6c-2.16,3.94,1.39,6.05,5,7Z"/>
    </g>
  </g>
</svg>